<svg xmlns="http://www.w3.org/2000/svg" width="371" height="98" viewBox="0 0 371 98">
  <path fill="#FFF" fill-rule="evenodd" d="M0 48.932C0 13.456 17.234 0 40.98 0 65 0 81.963 13.184 81.963 48.932 81.962 84.68 64.592 98 40.982 98 12.483 98 0 77.34 0 48.932zm27.818-5.03V56c0 28.68 0 39.146 13.163 39.146 12.892 0 13.3-10.33 13.3-38.06v-11.96c0-32.077 0-42.272-13.3-42.272-13.026 0-13.162 11.418-13.162 41.05zm64.32 42.41C92.14 91.747 95.126 98 104.22 98c7.598 0 11.67-4.893 11.67-12.097 0-8.02-5.022-11.553-12.08-11.553-7.598 0-11.67 5.3-11.67 11.96zM158.09 0c-21.982 0-31.345 9.38-31.345 20.796 0 6.66 3.663 12.64 12.077 12.64 6.785 0 11.94-4.213 11.94-10.6 0-2.584-5.97-6.885-5.97-10.06 0-4.35 2.307-10.193 10.314-10.193 9.363 0 11.94 5.844 11.94 19.3 0 19.03-8.14 30.31-25.646 46.35l-13.706 12.64v15.768h63.78l1.356-37.65h-2.307c-2.035 10.466-5.563 16.855-18.86 16.855h-32.57l8.28-5.98c33.11-23.923 43.558-30.72 43.558-46.486C190.928 7.475 178.85 0 158.088 0zm68.393 41.592c10.857 0 12.214 7.068 12.214 24.058 0 18.622-.407 29.632-11.942 29.632-8.277 0-10.177-5.165-10.177-8.835 0-1.63 6.514-2.68 6.514-11.418 0-6.933-4.887-10.603-11.672-10.603-8.413 0-12.348 5.98-12.348 12.64 0 16.72 17.234 20.933 28.09 20.933 24.154 0 38.945-11.825 38.945-31.262 0-14.136-7.735-28.408-34.875-28.408-8.006 0-15.198 2.04-21.304 5.3l.678-26.368h50.823V1.36h-52.45l-2.172 1.63v43.36l2.307 1.087c5.7-3.534 11.67-5.845 17.37-5.845zm97.84 34.117c0-13.593 9.227-23.652 23.747-23.652 14.248 0 22.933 7.884 22.933 22.563C371 89.166 360.823 98 347.524 98c-15.334 0-23.204-9.922-23.204-22.29zm16.69-.137c0 12.912 0 20.252 6.786 20.252 6.65 0 6.65-8.155 6.65-20.932 0-13.592-.137-20.66-6.515-20.66-6.92 0-6.92 7.204-6.92 21.34zM291.075 96.64l57.13-95.145h5.427L296.638 96.64h-5.563zm-16.827-72.99c0-13.592 9.227-23.65 23.747-23.65 14.25 0 22.933 7.883 22.933 22.563 0 14.544-10.177 23.38-23.476 23.38-15.333 0-23.203-9.924-23.203-22.293zm16.69-.135c0 12.912 0 20.252 6.786 20.252 6.65 0 6.65-8.155 6.65-20.932 0-13.592-.137-20.66-6.515-20.66-6.92 0-6.92 7.204-6.92 21.34z"/>
</svg>
